<?xml version="1.0" standalone="no"?>
<!DOCTYPE svg PUBLIC "-//W3C//DTD SVG 20010904//EN"
 "http://www.w3.org/TR/2001/REC-SVG-20010904/DTD/svg10.dtd">
<svg version="1.0" xmlns="http://www.w3.org/2000/svg"
 width="828.000000pt" height="414.000000pt" viewBox="0 0 828.000000 414.000000"
 preserveAspectRatio="xMidYMid meet">

<g transform="translate(0.000000,414.000000) scale(0.100000,-0.100000)"
fill="#000000" stroke="none">
<path d="M3415 2984 c-183 -22 -306 -101 -354 -228 -17 -46 -37 -152 -44 -231
-2 -30 -2 -30 -81 -36 -105 -9 -109 -14 -114 -137 -1 -54 1 -104 7 -112 7 -11
35 -16 98 -20 l88 -5 6 -140 c4 -77 7 -283 8 -458 l1 -318 143 3 142 3 6 70
c4 39 7 214 8 390 1 176 4 350 8 388 l6 67 128 0 c162 0 159 -3 159 157 l0
113 -155 0 -155 0 0 38 c0 55 24 127 56 169 30 40 82 66 166 83 79 16 88 27
88 110 0 92 -9 100 -108 99 -42 -1 -90 -4 -107 -5z"/>
<path d="M1120 2690 l0 -290 -59 39 c-83 53 -165 75 -281 75 -162 0 -288 -52
-401 -165 -78 -77 -141 -194 -164 -304 -19 -91 -19 -243 0 -324 39 -163 164
-318 316 -391 104 -50 178 -64 294 -57 103 6 151 21 230 71 30 20 57 36 59 36
2 0 9 -13 16 -29 6 -16 25 -35 40 -41 32 -13 223 -10 237 3 4 5 9 382 11 838
l4 829 -151 0 -151 0 0 -290z m-173 -489 c57 -29 131 -104 156 -159 18 -38 22
-65 22 -142 0 -88 -3 -101 -33 -162 -57 -117 -157 -182 -277 -182 -61 0 -79 4
-134 34 -80 43 -140 119 -165 211 -48 169 55 369 215 418 52 16 169 6 216 -18z"/>
<path d="M3782 2968 c-13 -13 -15 -735 -3 -1343 l6 -320 136 -3 136 -3 6 338
c4 186 7 564 7 841 l0 502 -138 0 c-94 0 -142 -4 -150 -12z"/>
<path d="M2032 2501 c-237 -59 -410 -234 -456 -463 -72 -351 105 -659 426
-745 88 -24 263 -23 343 1 123 37 242 117 325 219 55 67 75 108 101 204 57
207 5 449 -129 594 -105 114 -244 181 -412 199 -122 12 -108 13 -198 -9z m271
-299 c54 -24 119 -86 147 -143 32 -62 51 -163 40 -218 -27 -143 -99 -240 -207
-281 -81 -31 -191 -25 -256 13 -104 61 -160 167 -161 307 -2 163 74 289 201
336 52 20 177 12 236 -14z"/>
<path d="M4725 2510 c-133 -18 -275 -103 -375 -222 -56 -67 -78 -105 -106
-188 -27 -78 -27 -328 -1 -415 52 -171 200 -318 382 -381 68 -23 97 -27 190
-28 293 0 503 146 596 414 30 86 33 292 5 385 -61 206 -225 369 -421 418 -79
20 -195 27 -270 17z m230 -304 c95 -44 154 -128 175 -250 39 -219 -108 -416
-311 -416 -149 0 -268 118 -300 298 -26 144 68 335 182 370 95 30 188 29 254
-2z"/>
<path d="M5460 2443 c0 -36 29 -130 182 -593 156 -472 174 -521 195 -537 18
-14 249 -18 269 -5 6 4 33 72 59 152 74 224 186 544 195 553 9 10 48 -100 146
-413 42 -135 83 -258 91 -273 l14 -28 139 3 c76 2 141 6 145 10 4 3 46 118 95
255 173 489 196 541 250 563 38 16 61 6 184 -72 106 -68 167 -88 264 -88 141
0 248 47 306 135 58 88 58 87 -32 80 -158 -14 -243 13 -447 141 -184 115 -292
153 -400 139 -74 -9 -112 -36 -141 -100 -21 -45 -204 -548 -221 -607 -11 -37
-23 -14 -63 115 -115 368 -182 568 -196 582 -12 12 -41 15 -134 15 l-119 0
-15 -27 c-7 -16 -48 -139 -90 -275 -87 -284 -134 -418 -146 -418 -9 0 -10 1
-115 340 -110 353 -115 368 -139 374 -12 3 -78 6 -148 6 l-128 0 0 -27z"/>
</g>
</svg>
