<svg xmlns="http://www.w3.org/2000/svg" version="1.1" xmlns:xlink="http://www.w3.org/1999/xlink" viewBox="0 0 7.4986936367963235 3.3006704616667313"><g transform="matrix(0.7857583998876525,0,0,0.7857583998876525,3.2726802004567475,1.2006849864976565)"><g transform="matrix(1,0,0,1,0,0)" clip-path="url(#SvgjsClipPath165879)"><g clip-path="url(#SvgjsClipPath1658777b0ca540-bb71-4b7e-9781-1bbddaf42fb8)"><path d=" M -0.6566777586103241 0.7204679627801047 C -0.8035527306425472 0.731778121054244 -0.8783254436771335 0.9958388996490752 -0.7908288025841406 1.0817646854262153 C -0.7484157090561192 1.123392351296311 -0.6681450024160482 1.1081550547325403 -0.6027974212765779 0.9985093536860248 C -0.5339939584422315 0.9985093536860248 -0.480427792171656 0.9985093536860248 -0.44555480415972726 0.9985093536860248 C -0.42858956674851845 0.9507553520841041 -0.4144518689058452 0.9015875806979161 -0.4032987961632908 0.8511631250590457 C -0.43895721183314595 0.8511631250590457 -0.4933088057616475 0.8511631250590457 -0.5628976962539207 0.8511631250590457 C -0.5680815187962338 0.7261230419171749 -0.6420688041728941 0.7203108772485198 -0.6566777586103241 0.7204679627801047 Z" fill="#173054" transform="matrix(1,0,0,1,0,0)" fill-rule="nonzero"></path></g><g clip-path="url(#SvgjsClipPath1658777b0ca540-bb71-4b7e-9781-1bbddaf42fb8)"><path d=" M -2.2148091464045723 0.6585762633355101 C -2.031176159981397 0.6585762633355101 -1.8145552119253157 0.6585762633355101 -1.582225710710708 0.6585762633355101 C -1.2198293893435008 0.6585762633355101 -0.8913635427987108 0.6585762633355101 -0.6610761534947112 0.6585762633355101 C -0.6596623837104438 0.6295154399922362 -0.6588769560525178 0.6001404455857915 -0.6588769560525178 0.5706083656477616 C -0.6588769560525178 0.5464171937836309 -0.6593482126472736 0.5226972785142558 -0.6602907258367856 0.4989773632448806 C -0.8905781151407848 0.4989773632448806 -1.2193581327487455 0.4989773632448806 -1.5820686251791234 0.4989773632448806 C -1.8148693829884868 0.4989773632448806 -2.031490331044568 0.4989773632448806 -2.2152804029993285 0.4989773632448806 C -2.263505661196005 0.20365656386458142 -2.4300163246763864 0.19595937281690368 -2.4488665884666183 0.1961164583484888 C -2.73381974276229 0.21842260383359646 -2.767593132053122 0.7454445623021619 -2.5578839473867925 0.9166677917301016 C -2.4309588378658975 1.0201871570447913 -2.2586360097168616 0.9396022793415506 -2.2148091464045723 0.6585762633355101 Z M -2.3879174022115346 0.5866310898694589 C -2.38807448774312 0.5911865702854318 -2.38807448774312 0.5958991362329895 -2.3883886588062904 0.6004546166489622 C -2.3888599154010466 0.605795524722861 -2.3894882575273875 0.6106651762020043 -2.3902736851853135 0.6158489987443183 C -2.390430770716899 0.6171056829970003 -2.3907449417800697 0.6183623672496823 -2.3907449417800697 0.6197761370339496 C -2.3916874549695812 0.6254312161710194 -2.392787053690678 0.6309292097765036 -2.39404373794336 0.6362701178504024 C -2.394514994538116 0.6376838876346698 -2.394514994538116 0.6389405718873524 -2.3949862511328717 0.6405114272032046 C -2.3959287643223837 0.6438102233664951 -2.3965571064487246 0.6469519339982006 -2.3976567051698217 0.6500936446299057 C -2.3985992183593328 0.6530782697300259 -2.399227560485674 0.6559058092985608 -2.4001700736751856 0.658890434398681 C -2.4006413302699414 0.6604612897145332 -2.4014267579278674 0.6618750594988008 -2.402212185585794 0.6634459148146534 C -2.4026834421805496 0.6643884280041652 -2.4029976132437203 0.6650167701305063 -2.403311784306891 0.6659592833200179 C -2.4053538962174996 0.6706718492675758 -2.407396008128108 0.6752273296835483 -2.409438120038716 0.6794686390363505 C -2.4106948042913983 0.6818249220101298 -2.4119514885440805 0.6840241194523236 -2.413365258328348 0.6862233168945173 C -2.4149361136442007 0.6892079419946371 -2.4166640544916387 0.6923496526263426 -2.418549080870662 0.695020106663292 C -2.4194915940601733 0.6964338764475593 -2.42059119278127 0.6976905607002415 -2.4215337059707815 0.6991043304845088 C -2.4238899889445604 0.7024031266477992 -2.4262462719183397 0.7055448372795048 -2.4286025548921186 0.7083723768480397 C -2.429387982550045 0.7093148900375514 -2.430016324676386 0.709786146632307 -2.4308017523343124 0.7107286598218188 C -2.433472206371262 0.713713284921939 -2.4362997459397966 0.7163837389588883 -2.438970199976746 0.7187400219326676 C -2.4408552263557692 0.7203108772485198 -2.442897338266378 0.7217246470327874 -2.444625279113816 0.7229813312854698 C -2.4461961344296683 0.7240809300065665 -2.4479240752771063 0.7254946997908338 -2.4496520161245443 0.7264372129803456 C -2.474314444583431 0.7419886806072866 -2.50321818239512 0.7416745095441162 -2.5305510648909557 0.7184258508694967 C -2.544845848265215 0.7063302649374312 -2.556156006539354 0.6896791985893931 -2.5646386252449584 0.6708289347991612 C -2.5651098818397142 0.6698864216096498 -2.56558113843447 0.6692580794833087 -2.5658953094976407 0.6683155662937972 C -2.5663665660923964 0.6673730531042854 -2.566680737155567 0.6664305399147741 -2.5669949082187378 0.6656451122568476 L -2.5669949082187378 0.6656451122568476 C -2.582546375845679 0.6285729268027249 -2.5866305996668957 0.5878877741221413 -2.582075119250923 0.5506585031364335 C -2.5776767243665355 0.5065174687609737 -2.561811085676424 0.46583231608038966 -2.5343211176490024 0.4422694863426 C -2.5160991959851113 0.42499007786822074 -2.4941072215631745 0.4169787157573721 -2.470230220762214 0.4232621370207832 C -2.4623759441829507 0.4253042489313912 -2.4546787531352727 0.42876013062626694 -2.4474528186823505 0.43347269657382514 C -2.446667391024424 0.4339439531685809 -2.446039048898083 0.4345722952949218 -2.4452536212401568 0.435043551889678 C -2.4425831672032072 0.43708566380028646 -2.4397556276346726 0.4392848612424798 -2.437085173597723 0.4417982297478442 C -2.4362997459397966 0.44258365740577066 -2.4356714038134557 0.44305491400052643 -2.4348859761555293 0.44368325612686776 C -2.4322155221185797 0.4463537101638173 -2.42954506808163 0.4491812497323515 -2.4270316995762657 0.45232296036405706 C -2.425932100855169 0.4535796446167393 -2.4249895876656575 0.45483632886942127 -2.424047074476146 0.4562500986536886 C -2.422476219160293 0.45844929609588236 -2.420748278312855 0.46064849353807613 -2.4193345085285882 0.4628476909802699 C -2.418549080870662 0.46394728970136656 -2.418077824275906 0.46488980289087833 -2.4172923966179796 0.46598940161197544 C -2.4157215413021267 0.46850277011733965 -2.413993600454689 0.4713303096858743 -2.412265659607251 0.4741578492544092 C -2.4121085740756656 0.47462910584916496 -2.4117944030124954 0.4751003624439205 -2.4114802319493247 0.4755716190386765 C -2.409909376633472 0.47855624413879627 -2.4083385213176194 0.4816979547705018 -2.406924751533352 0.484682579870622 C -2.406924751533352 0.48483966540220735 -2.406767666001767 0.48483966540220735 -2.406767666001767 0.4851538364653778 C -2.4055109817490847 0.4881384615654978 -2.4040972119648174 0.4912801721972031 -2.40268344218055 0.4942647972973231 C -2.401740928991038 0.49646399473951686 -2.401112586864697 0.4985061066501253 -2.4004842447383563 0.49991987643439284 C -2.400327159206771 0.5003911330291484 -2.400327159206771 0.5008623896239042 -2.4000129881436005 0.5013336462186602 C -2.393886652411775 0.5186130546930394 -2.389802428590558 0.5377774895464416 -2.387917402211535 0.5583556941841115 C -2.387917402211535 0.5588269507788672 -2.387917402211535 0.5588269507788672 -2.387917402211535 0.5592982073736232 C -2.3871319745536086 0.5665241418265452 -2.386974889022023 0.573907161811053 -2.386974889022023 0.5812901817955602 C -2.3877603166799495 0.5823897805166567 -2.3879174022115346 0.5845889779588505 -2.3879174022115346 0.5866310898694589 Z" fill="#3a868f" transform="matrix(1,0,0,1,0,0)" fill-rule="nonzero"></path></g><g clip-path="url(#SvgjsClipPath1658777b0ca540-bb71-4b7e-9781-1bbddaf42fb8)"><path d=" M -2.260206865032714 0.17302488520545467 C -2.138936834648889 0.270260829256734 -1.8641942399062597 0.20428490599092253 -1.7679008090444919 -0.057733760693300384 C -1.7067945372578235 -0.057733760693300384 -1.643803239092132 -0.057733760693300384 -1.579084000079003 -0.057733760693300384 C -1.3783286907130337 -0.057733760693300384 -1.1893547962159592 -0.057733760693300384 -1.0272425276199648 -0.057733760693300384 C -1.0825366347379786 0.006671307256658543 -1.1260493269870968 0.05756701949028464 -1.248576041623604 0.16532769415777682 C -1.3286896627320897 0.16532769415777682 -1.4122591655354508 0.16532769415777682 -1.4981849513125909 0.16532769415777682 C -1.5506515188620695 0.06008038799564874 -1.6466307786606666 0.05222611141638556 -1.6749061743460143 0.05254028247955633 C -1.8700064045749143 0.0621224999062574 -1.9331547882721911 0.2853410402889195 -1.8121989289515366 0.3907454319826329 C -1.7220318338215943 0.469445283306851 -1.5583487099097475 0.4488670786691813 -1.4956715828072265 0.3131451793795118 C -1.3886963357976607 0.3131451793795118 -1.2853340560145556 0.3131451793795118 -1.1874697698369354 0.3131451793795118 C -1.031483836972767 0.17161111542118745 -0.9378608601479486 0.07516059902783456 -0.8577472390394634 -0.05757667516171483 C -0.7367913797188088 -0.05757667516171483 -0.6401837777938706 -0.05757667516171483 -0.5767212230334229 -0.05757667516171483 C -0.6002840527712126 -0.10077519634766263 -0.6263602510143671 -0.14240286221775816 -0.6544785611681294 -0.18198841617724504 C -0.715427747423212 -0.18198841617724504 -0.809993237437542 -0.18198841617724504 -0.9284357282528324 -0.18198841617724504 C -1.1034290104388176 -0.18198841617724504 -1.3304176035795265 -0.18198841617724504 -1.5770418881683932 -0.18198841617724504 C -1.6364202191076238 -0.18198841617724504 -1.6943847802625864 -0.18198841617724504 -1.7507784861016968 -0.18198841617724504 C -1.7664870392602232 -0.33797434904141366 -1.8530411671637048 -0.39342554169101235 -1.9287563933878027 -0.39326845615942707 C -2.184962895403372 -0.37928784384833875 -2.461433430993439 0.011540958735801854 -2.260206865032714 0.17302488520545467 Z M -2.1635992631077756 -0.08443830106279548 C -2.1634421775761905 -0.08663749850498925 -2.16312800651302 -0.0888366959471828 -2.162656749918264 -0.0911929789209619 C -2.156844585249609 -0.1298360196909371 -2.13359592657499 -0.16706529067664522 -2.103278418979034 -0.1947123442356521 C -2.1024929913211077 -0.19549777189357825 -2.1018646491947663 -0.19596902848833414 -2.100922136005255 -0.1967544561462603 C -2.0963666555892817 -0.20083867996747734 -2.0918111751733095 -0.2046087327255237 -2.0867844381625806 -0.2083787854835698 C -2.085684839441484 -0.2091642131414962 -2.084585240720387 -0.2099496407994224 -2.08348564199929 -0.21073506845734896 C -2.0553673318455274 -0.23084201650026293 -2.02410731106006 -0.24215217477440215 -1.996460257501053 -0.239167549674282 C -1.9944181455904446 -0.23901046414269683 -1.992376033679836 -0.23901046414269683 -1.9903339217692277 -0.23869629307952633 C -1.9879776387954486 -0.23822503648477045 -1.9859355268848402 -0.23743960882684406 -1.9835792439110613 -0.23681126670050306 C -1.9809087898741116 -0.23602583904257668 -1.9782383358371622 -0.23524041138465052 -1.9757249673317978 -0.23429789819513874 C -1.9736828554211894 -0.23335538500562725 -1.971797829042166 -0.23241287181611547 -1.969912802663143 -0.2313132730950188 C -1.9672423486261934 -0.22989950331075137 -1.9645718945892439 -0.2281715624633135 -1.962215611615465 -0.2262865360842904 C -1.9612730984259534 -0.22550110842636423 -1.9601734997048568 -0.22518693736319373 -1.9592309865153452 -0.22440150970526712 C -1.9584455588574188 -0.2239302531105113 -1.9581313877942483 -0.22314482545258507 -1.9573459601363217 -0.2223593977946587 C -1.9553038482257135 -0.22047437141563542 -1.9532617363151048 -0.21827517397344187 -1.9515337954676668 -0.21623306206283344 C -1.9501200256833995 -0.2146622067469809 -1.9485491703675468 -0.21309135143112812 -1.94744957164645 -0.21152049611527557 C -1.9461928873937677 -0.2096354697362523 -1.9450932886726708 -0.20759335782564386 -1.9438366044199888 -0.2057083314466206 C -1.9427370056988917 -0.20366621953601216 -1.9414803214462095 -0.2017811931569889 -1.9405378082566984 -0.19989616677796562 C -1.9395952950671864 -0.19801114039894252 -1.9389669529408458 -0.19596902848833414 -1.938181525282919 -0.19408400210931087 C -1.9370819265618224 -0.19109937700919088 -1.9361394133723109 -0.18874309403541173 -1.9355110712459698 -0.1863868110616328 C -1.9350398146512138 -0.18528721234053613 -1.9347256435880433 -0.18434469915102458 -1.934568558056458 -0.18324510042992748 C -1.934568558056458 -0.18277384383517165 -1.9344114725248727 -0.1824596727720013 -1.9340973014617022 -0.18214550170883081 C -1.9339402159301167 -0.18088881745614876 -1.9336260448669464 -0.17978921873505166 -1.9336260448669464 -0.1785325344823696 C -1.93284061720902 -0.17523373831907912 -1.932212275082679 -0.17193494215578847 -1.931583932956338 -0.16847906046091266 C -1.9231013142507336 -0.09637680146327565 -1.9719549145737512 -0.03385675989234027 -2.0280344493496907 -0.006523877396503952 C -2.0281915348812762 -0.006523877396503952 -2.0281915348812762 -0.0063667918649185085 -2.028505705944447 -0.0063667918649185085 C -2.0335324429551753 -0.004010508891139408 -2.0384020944343186 -0.0018113114489456406 -2.043585916976632 0.00007371493007723995 C -2.0443713446345586 0.0002308004616625725 -2.0449996867608995 0.0005449715248331266 -2.045628028887241 0.0008591425880035697 C -2.078301819456976 0.012169300862142629 -2.111761037684637 0.011226787672631078 -2.136423466143524 -0.007937647180771279 C -2.1533887035547328 -0.021289917365518773 -2.1620284077919223 -0.03982601009258013 -2.164227605234116 -0.06040421473025004 C -2.164227605234116 -0.06056130026183537 -2.164227605234116 -0.06056130026183537 -2.164227605234116 -0.060875471325005814 C -2.164227605234116 -0.06118964238817637 -2.164227605234116 -0.06103255685659126 -2.164227605234116 -0.0613467279197617 C -2.164698861828872 -0.06668763599366079 -2.164698861828872 -0.07202854406755976 -2.164698861828872 -0.07752653767304396 C -2.1639134341709463 -0.07988282064682273 -2.1639134341709463 -0.08208201808901627 -2.1635992631077756 -0.08443830106279548 Z" fill="#173054" transform="matrix(1,0,0,1,0,0)" fill-rule="nonzero"></path></g><g clip-path="url(#SvgjsClipPath1658777b0ca540-bb71-4b7e-9781-1bbddaf42fb8)"><path d=" M -0.8634023181765333 1.2124598477051562 C -0.9936262238607183 0.9985093536860248 -1.1874697698369363 0.8445655327324648 -1.1887264540896183 0.8439371906061233 C -1.2864336547356536 0.8439371906061233 -1.3894817634555876 0.8439371906061233 -1.4961428394019827 0.8439371906061233 C -1.55065151886207 0.7256517853224185 -1.663753101603461 0.7203108772485194 -1.685587990493813 0.7204679627801047 C -1.878646108812104 0.7302072657383909 -1.9292276499825598 0.9394451938099648 -1.807957619598735 1.0506617501723325 C -1.71920429425306 1.1320320555335004 -1.5646321311731586 1.1238636078910664 -1.4984991223757618 0.9912834192331024 L -1.4984991223757618 0.9912834192331024 C -1.4128875076617924 0.9912834192331024 -1.3297892614531868 0.9912834192331024 -1.2499898114078718 0.9912834192331024 C -1.1708187034888986 1.0626002505728127 -1.102643582780893 1.124334864485822 -1.031169665909597 1.2127740187683265 C -1.1918681647213234 1.2127740187683265 -1.3794282894341308 1.2127740187683265 -1.5787698290158325 1.2127740187683265 C -1.6428607259026207 1.2127740187683265 -1.7053807674735566 1.2127740187683265 -1.7661728681970543 1.2127740187683265 C -1.8467577459002953 0.9961530707122459 -2.034789127207858 0.9396022793415506 -2.122914110427192 0.9400735359363064 C -2.39404373794336 0.9562533456895888 -2.3767643294689806 1.2492178620961087 -2.160614638007656 1.435678388087819 C -1.9526333941887644 1.6150700651581924 -1.772142118397294 1.571400287377489 -1.7495218018490162 1.3360861610627606 C -1.6937564381362467 1.3360861610627606 -1.6361060480444543 1.3360861610627606 -1.5773560592315647 1.3360861610627606 C -1.3329309720848919 1.3360861610627606 -1.108298661917962 1.3360861610627606 -0.9350333205794146 1.3360861610627606 C -0.8916777138618814 1.3360861610627606 -0.8516209033076385 1.3360861610627606 -0.8151770599798571 1.3360861610627606 C -0.7529711894720919 1.3360861610627606 -0.7016042206437101 1.3360861610627606 -0.663589522000076 1.3360861610627606 C -0.6351570407831426 1.2968147781664443 -0.6086095859452327 1.2556583688911047 -0.5844184140811022 1.212616933236742 C -0.6472526267152077 1.2124598477051562 -0.7432318865138052 1.2124598477051562 -0.8634023181765333 1.2124598477051562 Z M -1.9303272487036565 1.3345153057469077 C -1.9303272487036565 1.3349865623416635 -1.9304843342352418 1.3354578189364195 -1.9304843342352418 1.33577198999959 C -1.9306414197668271 1.336243246594346 -1.9309555908299973 1.3367145031891017 -1.9309555908299973 1.3371857597838577 C -1.9351969001827998 1.3535226550687252 -1.9430511767620628 1.3667178397218873 -1.9542042495046168 1.3764571426801737 C -1.9568747035415663 1.378813425653953 -1.959702243110101 1.3808555375645613 -1.9626868682102212 1.3825834784119992 C -1.9631581248049772 1.382740563943584 -1.9634722958681476 1.3830547350067546 -1.9639435524629034 1.3833689060699257 C -1.9670852630946087 1.3852539324489488 -1.970069888194729 1.3866677022332166 -1.9735257698896047 1.3879243864858979 C -1.974468283079116 1.388395643080654 -1.975410796268628 1.3887098141438243 -1.976196223926554 1.3888668996754099 C -1.9787095924319185 1.3898094128649214 -1.9815371320004531 1.3904377549912619 -1.9842075860374027 1.3910660971176032 C -2.0143680081017736 1.3978207749757696 -2.053482305466505 1.3869818732963863 -2.094324543678674 1.3511663720949458 C -2.0966808266524533 1.3489671746527525 -2.0988800240946466 1.3467679772105583 -2.101393392600011 1.3444116942367792 C -2.101550478131596 1.3442546087051943 -2.101864649194767 1.3439404376420236 -2.102178820257937 1.3436262665788528 C -2.1064201296107394 1.3395420427576359 -2.1106614389635414 1.3354578189364188 -2.1142744061900025 1.3309023385204461 C -2.1147456627847583 1.3304310819256906 -2.1153740049110996 1.3296456542677642 -2.1158452615058554 1.3288602266098377 C -2.1194582287323165 1.3246189172570355 -2.122914110427192 1.320220522372648 -2.1262129065904825 1.3158221274882609 C -2.1266841631852387 1.3153508708935047 -2.1271554197799944 1.3145654432355784 -2.1274695908431647 1.3139371011092373 C -2.1664268026763107 1.2597425927123211 -2.17208188181338 1.196594209015044 -2.135323867422428 1.165648359292747 C -2.120557827453413 1.1519819180448287 -2.099665451752573 1.1447559835919063 -2.07421759563576 1.146798095502515 C -2.0715471415988103 1.1469551810341005 -2.0688766875618607 1.1472693520972712 -2.066206233524911 1.1475835231604419 C -2.0660491479933256 1.1475835231604419 -2.0657349769301554 1.1475835231604419 -2.0654208058669847 1.1477406086920268 C -2.0274061072233507 1.1530815167659256 -1.990333921769228 1.1772726886300566 -1.9642577235260739 1.2102606502629625 C -1.9637864669313179 1.210731906857718 -1.9633152103365623 1.2113602489840591 -1.9631581248049772 1.2116744200472298 C -1.9630010392733919 1.211831505578815 -1.9630010392733919 1.2121456766419856 -1.9626868682102212 1.2121456766419856 C -1.9488633414307182 1.2303675983058764 -1.9381815252829198 1.250945802943546 -1.93221227508268 1.2729377773654835 C -1.9320551895510945 1.27372320502341 -1.931741018487924 1.2745086326813357 -1.931741018487924 1.2752940603392626 C -1.9306414197668273 1.2795353696920648 -1.9296989065773156 1.2837766790448666 -1.9292276499825598 1.2880179883976688 C -1.9290705644509747 1.2888034160555957 -1.9290705644509747 1.2895888437135217 -1.928756393387804 1.290374271371448 C -1.9282851367930482 1.293358896471568 -1.9278138801982923 1.296186436040103 -1.9276567946667074 1.2991710611402232 C -1.927499709135122 1.3007419164560754 -1.9276567946667074 1.3024698573035136 -1.9276567946667074 1.3041977981509514 C -1.9276567946667074 1.3043548836825367 -1.9276567946667074 1.3043548836825367 -1.9276567946667074 1.3046690547457074 C -1.9273426236035365 1.3158221274882613 -1.9281280512614627 1.3255614304465477 -1.9303272487036565 1.3345153057469077 Z" fill="#173054" transform="matrix(1,0,0,1,0,0)" fill-rule="nonzero"></path></g><g clip-path="url(#SvgjsClipPath1658777b0ca540-bb71-4b7e-9781-1bbddaf42fb8)"><path d=" M -0.7339638401502746 0.05222611141638556 C -0.8638735747712891 0.06212249990625718 -0.8442378833231312 0.3059192449265894 -0.7350634388713713 0.40221267578835707 C -0.6598194692420294 0.4683456845857539 -0.5669819200751371 0.4408557165583322 -0.5602272422169707 0.30576215939500406 C -0.4903241806615277 0.30576215939500406 -0.43581550120144064 0.30576215939500406 -0.40000000000000036 0.30576215939500406 C -0.41068181614779853 0.25533770375613396 -0.4241911718641309 0.2058557613067752 -0.44068515268058395 0.15778758864168396 C -0.47571522622409823 0.15778758864168396 -0.529595563557844 0.15778758864168396 -0.5985561119237763 0.15778758864168396 C -0.6562065020155683 0.05898078927455186 -0.7166844316758954 0.05222611141638556 -0.7339638401502746 0.05222611141638556 Z" fill="#173054" transform="matrix(1,0,0,1,0,0)" fill-rule="nonzero"></path></g><g clip-path="url(#SvgjsClipPath1658777b0ca540-bb71-4b7e-9781-1bbddaf42fb8)"><path d=" M -1.2181014484960626 1.5937064328625956 C -1.1981515859847336 1.5580480171927404 -1.1953240464161992 1.5297726215073926 -1.1953240464161992 1.5172057789805713 C -1.1953240464161992 1.4436897501986667 -1.2642845947821304 1.3924798669018705 -1.3630913941492628 1.3927940379650412 L -1.3630913941492628 1.3927940379650412 C -1.6166274421278815 1.405203794960277 -1.7001969449312426 1.6147558940950213 -1.563532532452062 1.741995174679086 C -1.537613419740493 1.7663434320748026 -1.4939436419597891 1.8070285847553857 -1.3465974133328102 1.7171756606886142 C -1.318164932115877 1.6998962522142351 -1.2953875300360134 1.68245975820827 -1.2766943517773668 1.6656516063286473 C -1.2771656083721228 1.666122862923403 -1.2776368649668786 1.6665941195181584 -1.2781081215616346 1.6670653761129146 C -1.167834078388778 1.6670653761129146 -1.0801803517642001 1.6670653761129146 -1.0306984093148415 1.6670653761129146 C -0.9895420000395019 1.6436596319067096 -0.9497993605484296 1.6174263481319704 -0.9117846619047953 1.5889938669150374 C -0.9722625915651226 1.5889938669150374 -1.0797090951694441 1.5889938669150374 -1.2146455668011873 1.5889938669150374 C -1.2160593365854542 1.5905647222308907 -1.2171589353065508 1.591978492015158 -1.2181014484960626 1.5937064328625956 Z M -1.3379577090956203 1.5984189988101543 C -1.3379577090956203 1.5993615119996654 -1.338428965690376 1.6003040251891774 -1.338428965690376 1.6009323673155182 C -1.3385860512219614 1.6018748805050298 -1.3385860512219614 1.6028173936945413 -1.338900222285132 1.6036028213524673 C -1.3420419329168372 1.6229243417374546 -1.3539804333173175 1.6422458621224427 -1.3698460720074292 1.658425671875725 L -1.3698460720074292 1.658425671875725 C -1.372045269449623 1.6606248693179184 -1.3744015524234021 1.6628240667601126 -1.3766007498655959 1.6648661786707213 C -1.408174941714234 1.69376991648241 -1.4518447194949382 1.7107351538936184 -1.480434286243456 1.6912565479770456 C -1.4809055428382123 1.6910994624454605 -1.4809055428382123 1.6907852913822898 -1.4813767994329679 1.6907852913822898 C -1.4823193126224796 1.690314034787534 -1.483261825811991 1.6896856926611932 -1.4840472534699174 1.6889002650032667 C -1.4849897666594292 1.6881148373453403 -1.4854610232541847 1.6873294096874139 -1.4862464509121112 1.6865439820294874 C -1.4875031351647932 1.6852872977768056 -1.4887598194174751 1.6840306135241234 -1.4901735892017427 1.682616843739856 C -1.4911161023912545 1.681674330550344 -1.4917444445175954 1.6807318173608325 -1.4925298721755218 1.6796322186397359 C -1.4939436419597891 1.6777471922607128 -1.4952003262124713 1.6757050803501046 -1.4964570104651533 1.6735058829079108 C -1.4969282670599093 1.6725633697183993 -1.49755660918625 1.6716208565288877 -1.4978707802494207 1.6708354288709617 C -1.4988132934389324 1.6692645735551088 -1.4992845500336884 1.6673795471760857 -1.5000699776916144 1.6654945207970622 C -1.5025833461969789 1.6587398429388958 -1.5039971159812464 1.6516709940175591 -1.5041542015128317 1.6441308885014663 C -1.5041542015128317 1.64365963190671 -1.5041542015128317 1.6433454608435394 -1.5041542015128317 1.6430312897803692 C -1.5041542015128317 1.64036083574342 -1.5039971159812464 1.6373762106432994 -1.5036829449180757 1.6345486710747652 C -1.5036829449180757 1.6336061578852532 -1.5035258593864902 1.6329778157589123 -1.50321168832332 1.6320353025694012 C -1.5027404317285644 1.629679019595622 -1.5024262606653935 1.6273227366218426 -1.501955004070638 1.6249664536480641 C -1.501483747475882 1.6226101706742853 -1.5008554053495413 1.6204109732320915 -1.5000699776916144 1.6178976047267275 C -1.4995987210968589 1.6169550915372155 -1.4995987210968589 1.6158554928161188 -1.499127464502103 1.6149129796266073 C -1.4945719840861302 1.6012465383786894 -1.4867177075068667 1.5878942681939416 -1.4752504637011425 1.5767411954513877 C -1.4736796083852903 1.5751703401355348 -1.4717945820062668 1.5737565703512675 -1.470066641158829 1.5723428005670002 C -1.4699095556272437 1.572185715035415 -1.469595384564073 1.5718715439722444 -1.4692812135009028 1.5718715439722444 C -1.4658253318060268 1.5687298333405395 -1.4622123645795657 1.5660593793035895 -1.4585993973531046 1.5637030963298106 C -1.458442311821519 1.5637030963298106 -1.458442311821519 1.5635460107982255 -1.4581281407583488 1.5635460107982255 C -1.4394349624997023 1.5511362538029894 -1.418542586798862 1.5451670036027498 -1.39969232300863 1.5446957470079936 C -1.3987498098191182 1.5446957470079936 -1.3981214676927773 1.5445386614764085 -1.397178954503266 1.5442244904132378 C -1.3814704013447392 1.5442244904132378 -1.3679610456284066 1.5484657997660403 -1.357593400543779 1.5553775631557918 C -1.357122143949023 1.555848819750548 -1.3566508873542673 1.555848819750548 -1.356336716291097 1.5563200763453033 C -1.3547658609752442 1.5574196750664 -1.3533520911909769 1.5586763593190827 -1.3519383214067096 1.5599330435717644 C -1.3508387226856127 1.560875556761276 -1.3497391239645156 1.5619751554823726 -1.348639525243419 1.5630747542034693 C -1.3476970120539074 1.5640172673929813 -1.3470686699275662 1.565116866114078 -1.3462832422696398 1.5660593793035895 C -1.3450265580169578 1.5676302346194424 -1.3439269592958607 1.5692010899352948 -1.3429844461063494 1.5710861163143184 C -1.3425131895115936 1.5720286295038295 -1.3420419329168376 1.5731282282249262 -1.341570676322082 1.5740707414144377 C -1.3406281631325703 1.5759557677934612 -1.3399998210062292 1.5776837086408992 -1.3393714788798883 1.579725820551508 C -1.3389002222851325 1.5809825048041901 -1.3385860512219618 1.582396274588457 -1.3384289656903765 1.5838100443727243 C -1.3379577090956207 1.5856950707517479 -1.3376435380324505 1.5874230115991854 -1.3374864525008652 1.5893080379782085 C -1.3374864525008652 1.5897792945729647 -1.3373293669692798 1.5904076366993052 -1.3373293669692798 1.5908788932940614 C -1.3373293669692798 1.591978492015158 -1.3374864525008652 1.5930780907362547 -1.3374864525008652 1.5941776894573518 C -1.3379577090956203 1.5955914592416187 -1.33764353803245 1.5970052290258865 -1.3379577090956203 1.5984189988101543 Z" fill="#3a868f" transform="matrix(1,0,0,1,0,0)" fill-rule="nonzero"></path></g><g clip-path="url(#SvgjsClipPath1658777b0ca540-bb71-4b7e-9781-1bbddaf42fb8)"><path d=" M -1.190297309405471 -0.3659355736635912 C -1.189826052810715 -0.3907550876540631 -1.196894901732052 -0.41526043058136464 -1.2089904876641175 -0.4385090892559838 C -1.0718548185901806 -0.4385090892559838 -0.9625232886068358 -0.4385090892559838 -0.9009457602254114 -0.4385090892559838 C -0.9386462878058752 -0.46756991259925795 -0.9779176707021919 -0.4941173674371678 -1.0189169944459457 -0.5181514537697134 C -1.0696556211479864 -0.5181514537697134 -1.159351459683173 -0.5181514537697134 -1.2719817858298088 -0.5181514537697134 C -1.2708821871087121 -0.5170518550486165 -1.2699396739192004 -0.5159522563275196 -1.268682989666518 -0.5150097431380081 C -1.3401569065378138 -0.5822423506565018 -1.4424195875998216 -0.6282684114109846 -1.4948861551493005 -0.6281113258793992 C -1.594007125579603 -0.6227704178055001 -1.697212319831122 -0.4407082866981776 -1.567459670741693 -0.3189669997195968 C -1.43550782421007 -0.19471234423565165 -1.192182335784494 -0.22518693736319328 -1.190297309405471 -0.3659355736635912 Z M -1.5028975172601489 -0.49537405168984994 C -1.5024262606653933 -0.5132818022905702 -1.4958286683388118 -0.529775783107023 -1.482005141559309 -0.5409288558495768 C -1.4529443182160349 -0.5648058566505373 -1.406289915335211 -0.5476835337077433 -1.3731448681707197 -0.5170518550486165 C -1.353195005659391 -0.4993011899794814 -1.337800623564035 -0.4766808734312032 -1.3345018274007445 -0.45374638581975446 C -1.3343447418691592 -0.4528038726302428 -1.334030570805989 -0.45186135944073125 -1.334030570805989 -0.4507617607196345 C -1.3338734852744034 -0.4498192475301228 -1.3335593142112327 -0.44887673434061126 -1.3335593142112327 -0.44809130668268493 C -1.3334022286796474 -0.4466775368984175 -1.333716399742818 -0.44510668158256483 -1.333716399742818 -0.44369291179829745 C -1.333716399742818 -0.44259331307720057 -1.3335593142112327 -0.44149371435610374 -1.3335593142112327 -0.44055120116659213 C -1.3335593142112327 -0.4400799445718363 -1.333716399742818 -0.4396086879770805 -1.333716399742818 -0.43929451691390997 C -1.3338734852744034 -0.43725240500330154 -1.3341876563375743 -0.4353673786242784 -1.3348159984639147 -0.43363943777684044 C -1.335287255058671 -0.43238275352415834 -1.335287255058671 -0.4309689837398909 -1.3357585116534265 -0.4297122994872088 C -1.336543939311353 -0.42767018757660036 -1.337172281437694 -0.4256280756659919 -1.3381147946272058 -0.42390013481855404 C -1.3385860512219614 -0.4229576216290424 -1.338900222285132 -0.4218580229079456 -1.3393714788798878 -0.42091550971843406 C -1.3404710776009845 -0.41903048333941084 -1.341727761853667 -0.4174596280235582 -1.342984446106349 -0.41557460164453497 C -1.3437698737642754 -0.4146320884550233 -1.3440840448274456 -0.41368957526551176 -1.344869472485372 -0.41306123313917076 C -1.345340729080128 -0.412589976544415 -1.3459690712064691 -0.4119616344180739 -1.3464403278012247 -0.4114903778233181 C -1.3520954069382944 -0.40567821315466335 -1.3591642558596315 -0.40127981827027587 -1.3676468745652355 -0.39813810763857044 C -1.3678039600968208 -0.39813810763857044 -1.3681181311599915 -0.39798102210698527 -1.3681181311599915 -0.39798102210698527 C -1.3706314996653557 -0.3970385089174736 -1.3734590392338903 -0.3964101667911325 -1.3762865788024252 -0.3956247391332063 C -1.3770720064603512 -0.39546765360162106 -1.3777003485866925 -0.3951534825384505 -1.3786428617762043 -0.3951534825384505 C -1.3809991447499832 -0.3946822259436946 -1.3833554277237623 -0.3943680548805242 -1.3858687962291263 -0.3940538838173536 C -1.3874396515449787 -0.3938967982857683 -1.389324677924002 -0.39358262722259785 -1.3912097043030252 -0.39358262722259785 C -1.3923093030241223 -0.39358262722259785 -1.393408901745219 -0.39342554169101257 -1.3946655859979011 -0.39342554169101257 C -1.3951368425926571 -0.39342554169101257 -1.3956080991874127 -0.39358262722259785 -1.3959222702505831 -0.39358262722259785 C -1.418856757862032 -0.39373971275418307 -1.4447758705736007 -0.40206524592820214 -1.4669249305271232 -0.42028716759209306 C -1.4673961871218792 -0.4207584241868488 -1.4678674437166348 -0.42122968078160455 -1.4681816147798052 -0.42154385184477505 C -1.4686528713745612 -0.42201510843953083 -1.469124127969317 -0.4224863650342867 -1.4695953845640726 -0.4228005360974572 C -1.4873460496332078 -0.438666174787569 -1.49755660918625 -0.4583018662357271 -1.5010124908811258 -0.47746630108912946 C -1.5010124908811258 -0.47793755768388535 -1.501169576412711 -0.47825172874705574 -1.501169576412711 -0.4784088142786411 C -1.5016408330074669 -0.48139343937876117 -1.5019550040706375 -0.484220978947296 -1.5021120896022229 -0.48720560404741603 C -1.5021120896022229 -0.4884622883000982 -1.5022691751338082 -0.4897189725527802 -1.5022691751338082 -0.4908185712738771 C -1.5030546027917342 -0.4928606831844857 -1.5028975172601489 -0.4939602819055825 -1.5028975172601489 -0.49537405168984994 Z" fill="#3a868f" transform="matrix(1,0,0,1,0,0)" fill-rule="nonzero"></path></g></g><g><path d=" M 0.333 1.1549999999999998 Q 0.2625 1.1549999999999998 0.201 1.1152499999999999 Q 0.1395 1.0755 0.10350000000000001 1.0094999999999998 Q 0.0675 0.9434999999999998 0.0675 0.8699999999999999 L 0.0675 0.7064999999999999 Q 0.0675 0.6284999999999998 0.10350000000000001 0.5654999999999999 Q 0.1395 0.5024999999999998 0.201 0.46424999999999983 Q 0.2625 0.4259999999999998 0.336 0.4259999999999998 Q 0.40950000000000003 0.4259999999999998 0.45975 0.4612499999999998 Q 0.51 0.49649999999999983 0.534 0.5399999999999998 L 0.534 0.03599999999999981 Q 0.534 0.01949999999999985 0.549 0.009749999999999925 Q 0.5640000000000001 -2.220446049250313e-16 0.5835 -2.220446049250313e-16 Q 0.606 -2.220446049250313e-16 0.61875 0.009749999999999925 Q 0.6315000000000001 0.01949999999999985 0.6315000000000001 0.03599999999999981 L 0.6315000000000001 1.1055 Q 0.6315000000000001 1.1204999999999998 0.61875 1.1324999999999998 Q 0.606 1.1444999999999999 0.5835 1.1444999999999999 Q 0.5655 1.1444999999999999 0.552 1.1324999999999998 Q 0.5385 1.1204999999999998 0.5385 1.1055 L 0.5385 1.0394999999999999 Q 0.5145 1.0859999999999999 0.45825 1.1204999999999998 Q 0.402 1.1549999999999998 0.333 1.1549999999999998 M 0.34950000000000003 1.065 Q 0.4035 1.065 0.44475000000000003 1.0372499999999998 Q 0.486 1.0094999999999998 0.51 0.9742499999999998 Q 0.534 0.9389999999999998 0.534 0.9164999999999999 L 0.534 0.7064999999999999 Q 0.534 0.6464999999999999 0.507 0.6044999999999998 Q 0.48 0.5624999999999999 0.438 0.5392499999999998 Q 0.396 0.5159999999999998 0.35100000000000003 0.5159999999999998 Q 0.3 0.5159999999999998 0.258 0.5437499999999998 Q 0.216 0.5714999999999998 0.1905 0.6149999999999999 Q 0.165 0.6584999999999999 0.165 0.7064999999999999 L 0.165 0.8699999999999999 Q 0.165 0.9194999999999999 0.1905 0.9644999999999999 Q 0.216 1.0094999999999998 0.258 1.0372499999999998 Q 0.3 1.065 0.34950000000000003 1.065 M 1.0770131835937502 1.1549999999999998 Q 1.0005131835937502 1.1549999999999998 0.9360131835937501 1.1152499999999999 Q 0.8715131835937501 1.0755 0.8317631835937501 1.0102499999999999 Q 0.7920131835937501 0.9449999999999998 0.7920131835937501 0.8699999999999999 L 0.7920131835937501 0.7064999999999999 Q 0.7920131835937501 0.6314999999999998 0.8310131835937501 0.5677499999999999 Q 0.8700131835937501 0.5039999999999999 0.9345131835937501 0.46499999999999986 Q 0.9990131835937501 0.4259999999999998 1.0770131835937502 0.4259999999999998 Q 1.1535131835937502 0.4259999999999998 1.21876318359375 0.46424999999999983 Q 1.2840131835937503 0.5024999999999998 1.32301318359375 0.5654999999999999 Q 1.3620131835937501 0.6284999999999998 1.3620131835937501 0.7064999999999999 L 1.3620131835937501 0.8699999999999999 Q 1.3620131835937501 0.9434999999999998 1.32301318359375 1.0094999999999998 Q 1.2840131835937503 1.0755 1.21876318359375 1.1152499999999999 Q 1.1535131835937502 1.1549999999999998 1.0770131835937502 1.1549999999999998 M 1.0770131835937502 1.065 Q 1.1295131835937502 1.065 1.17151318359375 1.0372499999999998 Q 1.21351318359375 1.0094999999999998 1.2390131835937501 0.9644999999999999 Q 1.26451318359375 0.9194999999999999 1.26451318359375 0.8699999999999999 L 1.26451318359375 0.7064999999999999 Q 1.26451318359375 0.6584999999999999 1.2397631835937502 0.6149999999999999 Q 1.21501318359375 0.5714999999999998 1.17226318359375 0.5437499999999998 Q 1.1295131835937502 0.5159999999999998 1.0770131835937502 0.5159999999999998 Q 1.0245131835937502 0.5159999999999998 0.9825131835937502 0.5437499999999998 Q 0.9405131835937501 0.5714999999999998 0.9150131835937501 0.6149999999999999 Q 0.8895131835937501 0.6584999999999999 0.8895131835937501 0.7064999999999999 L 0.8895131835937501 0.8699999999999999 Q 0.8895131835937501 0.9194999999999999 0.9150131835937501 0.9644999999999999 Q 0.9405131835937501 1.0094999999999998 0.9832631835937501 1.0372499999999998 Q 1.02601318359375 1.065 1.0770131835937502 1.065 M 1.57050439453125 1.1444999999999999 Q 1.55100439453125 1.1444999999999999 1.53750439453125 1.134 Q 1.52400439453125 1.1235 1.52400439453125 1.1069999999999998 L 1.52400439453125 0.28649999999999987 Q 1.52400439453125 0.19649999999999979 1.57050439453125 0.1319999999999999 Q 1.61700439453125 0.0674999999999999 1.69125439453125 0.033749999999999725 Q 1.76550439453125 -2.220446049250313e-16 1.8480043945312499 -2.220446049250313e-16 Q 1.89300439453125 -2.220446049250313e-16 1.93875439453125 0.010499999999999732 Q 1.9845043945312502 0.020999999999999908 2.02575439453125 0.04349999999999987 Q 2.06700439453125 0.06599999999999984 2.09700439453125 0.10199999999999987 L 2.09700439453125 1.1055 Q 2.09700439453125 1.1204999999999998 2.08275439453125 1.1324999999999998 Q 2.0685043945312502 1.1444999999999999 2.0460043945312503 1.1444999999999999 Q 2.02650439453125 1.1444999999999999 2.01300439453125 1.1324999999999998 Q 1.99950439453125 1.1204999999999998 1.99950439453125 1.1055 L 1.99950439453125 0.1379999999999999 Q 1.96950439453125 0.10799999999999987 1.92825439453125 0.09374999999999978 Q 1.88700439453125 0.0794999999999999 1.84500439453125 0.0794999999999999 Q 1.7895043945312499 0.0794999999999999 1.73850439453125 0.10424999999999973 Q 1.68750439453125 0.12899999999999978 1.65450439453125 0.17474999999999985 Q 1.62150439453125 0.2204999999999998 1.62150439453125 0.28349999999999986 L 1.62150439453125 0.43499999999999983 L 1.81350439453125 0.43499999999999983 Q 1.82850439453125 0.43499999999999983 1.83825439453125 0.44699999999999984 Q 1.8480043945312499 0.45899999999999985 1.8480043945312499 0.47399999999999987 Q 1.8480043945312499 0.4904999999999998 1.83825439453125 0.5032499999999999 Q 1.82850439453125 0.5159999999999998 1.81350439453125 0.5159999999999998 L 1.62150439453125 0.5159999999999998 L 1.62150439453125 1.1069999999999998 Q 1.62150439453125 1.1235 1.60650439453125 1.134 Q 1.59150439453125 1.1444999999999999 1.57050439453125 1.1444999999999999 M 2.5544912109375 1.1549999999999998 Q 2.4779912109375 1.1549999999999998 2.4134912109375 1.1152499999999999 Q 2.3489912109375 1.0755 2.3092412109375 1.0102499999999999 Q 2.2694912109375 0.9449999999999998 2.2694912109375 0.8699999999999999 L 2.2694912109375 0.7064999999999999 Q 2.2694912109375 0.6314999999999998 2.3084912109375 0.5677499999999999 Q 2.3474912109375 0.5039999999999999 2.4119912109375 0.46499999999999986 Q 2.4764912109375 0.4259999999999998 2.5544912109375 0.4259999999999998 Q 2.6309912109375 0.4259999999999998 2.6962412109375 0.46424999999999983 Q 2.7614912109375 0.5024999999999998 2.8004912109375 0.5654999999999999 Q 2.8394912109375 0.6284999999999998 2.8394912109375 0.7064999999999999 L 2.8394912109375 0.8699999999999999 Q 2.8394912109375 0.9434999999999998 2.8004912109375 1.0094999999999998 Q 2.7614912109375 1.0755 2.6962412109375 1.1152499999999999 Q 2.6309912109375 1.1549999999999998 2.5544912109375 1.1549999999999998 M 2.5544912109375 1.065 Q 2.6069912109375 1.065 2.6489912109375 1.0372499999999998 Q 2.6909912109375 1.0094999999999998 2.7164912109375 0.9644999999999999 Q 2.7419912109375 0.9194999999999999 2.7419912109375 0.8699999999999999 L 2.7419912109375 0.7064999999999999 Q 2.7419912109375 0.6584999999999999 2.7172412109375 0.6149999999999999 Q 2.6924912109375 0.5714999999999998 2.6497412109375 0.5437499999999998 Q 2.6069912109375 0.5159999999999998 2.5544912109375 0.5159999999999998 Q 2.5019912109374998 0.5159999999999998 2.4599912109375 0.5437499999999998 Q 2.4179912109375 0.5714999999999998 2.3924912109375 0.6149999999999999 Q 2.3669912109375 0.6584999999999999 2.3669912109375 0.7064999999999999 L 2.3669912109375 0.8699999999999999 Q 2.3669912109375 0.9194999999999999 2.3924912109375 0.9644999999999999 Q 2.4179912109375 1.0094999999999998 2.4607412109375 1.0372499999999998 Q 2.5034912109375 1.065 2.5544912109375 1.065 M 3.209982421875 1.1564999999999999 Q 3.1949824218750003 1.1564999999999999 3.185232421875 1.1497499999999998 Q 3.175482421875 1.1429999999999998 3.169482421875 1.1264999999999998 L 2.935482421875 0.4979999999999999 Q 2.933982421875 0.4934999999999998 2.931732421875 0.4867499999999998 Q 2.929482421875 0.47999999999999987 2.929482421875 0.4754999999999998 Q 2.929482421875 0.4634999999999998 2.938482421875 0.4537499999999999 Q 2.947482421875 0.44399999999999984 2.960982421875 0.43799999999999983 Q 2.974482421875 0.43199999999999983 2.987982421875 0.43199999999999983 Q 2.998482421875 0.43199999999999983 3.008982421875 0.43799999999999983 Q 3.019482421875 0.44399999999999984 3.022482421875 0.4544999999999998 L 3.214482421875 0.9884999999999998 L 3.368982421875 0.5009999999999999 Q 3.373482421875 0.4874999999999998 3.383232421875 0.4814999999999998 Q 3.3929824218749998 0.4754999999999998 3.407982421875 0.4754999999999998 Q 3.421482421875 0.4754999999999998 3.431982421875 0.4814999999999998 Q 3.442482421875 0.4874999999999998 3.446982421875 0.5009999999999999 L 3.595482421875 0.9944999999999998 L 3.791982421875 0.4544999999999998 Q 3.797982421875 0.43199999999999983 3.824982421875 0.43199999999999983 Q 3.8384824218749998 0.43199999999999983 3.8519824218750003 0.4372499999999998 Q 3.865482421875 0.4424999999999998 3.8744824218750002 0.4522499999999998 Q 3.883482421875 0.46199999999999986 3.883482421875 0.4754999999999998 Q 3.883482421875 0.47999999999999987 3.881232421875 0.4874999999999998 Q 3.878982421875 0.4949999999999999 3.877482421875 0.4979999999999999 L 3.643482421875 1.1324999999999998 Q 3.638982421875 1.146 3.627732421875 1.1512499999999999 Q 3.6164824218750002 1.1564999999999999 3.604482421875 1.1564999999999999 Q 3.589482421875 1.1564999999999999 3.5797324218749997 1.1504999999999999 Q 3.5699824218750003 1.1444999999999999 3.563982421875 1.134 L 3.407982421875 0.6464999999999999 L 3.253482421875 1.1264999999999998 Q 3.248982421875 1.1415 3.236982421875 1.1489999999999998 Q 3.224982421875 1.1564999999999999 3.209982421875 1.1564999999999999" fill="#173054" fill-rule="nonzero"></path></g><g></g></g><defs><clipPath id="SvgjsClipPath165879"><path d=" M -2.6927407692160696 -0.6281117267307383 h 2.2927407692160697 v 2.4007234534614765 h -2.2927407692160697 Z"></path></clipPath><clipPath id="SvgjsClipPath1658777b0ca540-bb71-4b7e-9781-1bbddaf42fb8"><path d=" M -2.6927407692160696 -0.6281117267307383 L -0.3999999999999999 -0.6281117267307383 L -0.3999999999999999 1.7726117267307382 L -2.6927407692160696 1.7726117267307382 Z"></path></clipPath></defs></svg>