<svg xmlns="http://www.w3.org/2000/svg" viewBox="0 11.649999618530273 156.0500030517578 38.75" data-asc="1.002" width="156.0500030517578" height="38.75"><defs/><g fill="#000000"><g transform="translate(0, 0)"><path d="M9.60 50.40Q6.35 50.40 4.22 49Q2.10 47.60 1.05 44.63Q0 41.65 0 36.95Q0 32 0.98 28.93Q1.95 25.85 4.15 24.43Q6.35 23 10.10 23Q12.20 23 14.28 23.45Q16.35 23.90 17.90 24.45L17.90 11.95L22.90 11.95L22.90 50.10L18.80 50.10L17.90 47.45Q17.10 48.15 15.70 48.83Q14.30 49.50 12.70 49.95Q11.10 50.40 9.60 50.40M11.20 46.30Q13.25 46.30 14.93 45.65Q16.60 45 17.90 44.30L17.90 28.05Q16.35 27.60 14.88 27.23Q13.40 26.85 11.60 26.85Q9.25 26.85 7.80 27.70Q6.35 28.55 5.70 30.70Q5.05 32.85 5.05 36.70Q5.05 40.25 5.65 42.38Q6.25 44.50 7.63 45.40Q9.00 46.30 11.20 46.30ZM40.65 50.40Q37.60 50.40 35.38 49.75Q33.15 49.10 31.70 47.58Q30.25 46.05 29.55 43.40Q28.85 40.75 28.85 36.70Q28.85 32.50 29.55 29.82Q30.25 27.15 31.70 25.65Q33.15 24.15 35.40 23.57Q37.65 23 40.65 23Q43.65 23 45.90 23.60Q48.15 24.20 49.60 25.70Q51.05 27.20 51.75 29.88Q52.45 32.55 52.45 36.70Q52.45 40.80 51.75 43.48Q51.05 46.15 49.63 47.65Q48.20 49.15 45.95 49.77Q43.70 50.40 40.65 50.40M40.65 46.30Q42.30 46.30 43.58 46Q44.85 45.70 45.70 44.73Q46.55 43.75 47 41.80Q47.45 39.85 47.45 36.65Q47.45 33.45 47 31.53Q46.55 29.60 45.70 28.65Q44.85 27.70 43.58 27.38Q42.30 27.05 40.65 27.05Q38.95 27.05 37.67 27.38Q36.40 27.70 35.58 28.65Q34.75 29.60 34.33 31.53Q33.90 33.45 33.90 36.65Q33.90 39.85 34.33 41.80Q34.75 43.75 35.58 44.73Q36.40 45.70 37.67 46Q38.95 46.30 40.65 46.30ZM60.15 50.10L60.15 27.45L56.15 27.45L56.15 24.20L60.15 23.35L60.15 20.70Q60.15 17.70 60.90 15.67Q61.65 13.65 63.40 12.65Q65.15 11.65 68.20 11.65Q69.95 11.65 71.22 11.85Q72.50 12.05 73.45 12.20L73.45 15.80L69.10 15.80Q67.50 15.80 66.65 16.30Q65.80 16.80 65.47 17.85Q65.15 18.90 65.15 20.45L65.15 23.35L73 23.35L73 27.45L65.15 27.45L65.15 50.10L60.15 50.10ZM84.75 50.15Q82.30 50.15 80.63 49.30Q78.95 48.45 78.13 46.58Q77.30 44.70 77.30 41.50L77.30 11.95L82.30 11.95L82.30 40.85Q82.30 42.95 82.72 44.08Q83.15 45.20 83.92 45.65Q84.70 46.10 85.75 46.25L88.25 46.55L88.25 50.15L84.75 50.15ZM103.20 50.40Q100.15 50.40 97.92 49.75Q95.70 49.10 94.25 47.58Q92.80 46.05 92.10 43.40Q91.40 40.75 91.40 36.70Q91.40 32.50 92.10 29.82Q92.80 27.15 94.25 25.65Q95.70 24.15 97.95 23.57Q100.20 23 103.20 23Q106.20 23 108.45 23.60Q110.70 24.20 112.15 25.70Q113.60 27.20 114.30 29.88Q115 32.55 115 36.70Q115 40.80 114.30 43.48Q113.60 46.15 112.17 47.65Q110.75 49.15 108.50 49.77Q106.25 50.40 103.20 50.40M103.20 46.30Q104.85 46.30 106.13 46Q107.40 45.70 108.25 44.73Q109.10 43.75 109.55 41.80Q110 39.85 110 36.65Q110 33.45 109.55 31.53Q109.10 29.60 108.25 28.65Q107.40 27.70 106.13 27.38Q104.85 27.05 103.20 27.05Q101.50 27.05 100.22 27.38Q98.95 27.70 98.13 28.65Q97.30 29.60 96.88 31.53Q96.45 33.45 96.45 36.65Q96.45 39.85 96.88 41.80Q97.30 43.75 98.13 44.73Q98.95 45.70 100.22 46Q101.50 46.30 103.20 46.30ZM125.25 50.10L117.45 23.35L122.60 23.35L128.45 45.45L134.75 23.35L139 23.35L145.30 45.45L150.90 23.35L156.05 23.35L148.35 50.10L142.80 50.10L136.80 30.25L130.70 50.10L125.25 50.10Z"/></g></g></svg>